<mxfile host="app.diagrams.net" agent="Mozilla/5.0 (Windows NT 10.0; Win64; x64) AppleWebKit/537.36 (KHTML, like Gecko) Chrome/141.0.0.0 Safari/537.36" version="28.2.7">
  <diagram name="Strona-1" id="zHpnIhUEnc6ASibu7dxd">
    <mxGraphModel dx="3466" dy="1307" grid="1" gridSize="20" guides="1" tooltips="1" connect="1" arrows="1" fold="1" page="1" pageScale="1" pageWidth="4000" pageHeight="2000" math="0" shadow="0">
      <root>
        <mxCell id="0" />
        <mxCell id="1" parent="0" />
        <mxCell id="rGbhJyJhz0m8njLA5riN-10" value="&lt;p style=&quot;margin:0px;margin-top:4px;text-align:center;&quot;&gt;&lt;i&gt;&amp;lt;&amp;lt;Interface&amp;gt;&amp;gt;&lt;/i&gt;&lt;br&gt;&lt;b&gt;WebSource&lt;/b&gt;&lt;/p&gt;&lt;hr size=&quot;1&quot; style=&quot;border-style:solid;&quot;&gt;&lt;p style=&quot;margin:0px;margin-left:4px;&quot;&gt;&lt;br&gt;&lt;/p&gt;&lt;hr size=&quot;1&quot; style=&quot;border-style:solid;&quot;&gt;&lt;p style=&quot;margin:0px;margin-left:4px;&quot;&gt;+ getName(): String&lt;br&gt;+ downloadFromWeb(): WebSourceStatus&lt;/p&gt;" style="verticalAlign=top;align=left;overflow=fill;html=1;whiteSpace=wrap;" parent="1" vertex="1">
          <mxGeometry x="3165" y="80" width="250" height="130" as="geometry" />
        </mxCell>
        <mxCell id="rGbhJyJhz0m8njLA5riN-11" value="&lt;p style=&quot;margin:0px;margin-top:4px;text-align:center;&quot;&gt;&lt;i&gt;&amp;lt;&amp;lt;Interface&amp;gt;&amp;gt;&lt;/i&gt;&lt;br&gt;&lt;b&gt;WebDataReceiver&lt;/b&gt;&lt;/p&gt;&lt;hr size=&quot;1&quot; style=&quot;border-style:solid;&quot;&gt;&lt;p style=&quot;margin:0px;margin-left:4px;&quot;&gt;&lt;br&gt;&lt;/p&gt;&lt;hr size=&quot;1&quot; style=&quot;border-style:solid;&quot;&gt;&lt;p style=&quot;margin:0px;margin-left:4px;&quot;&gt;+ onBegin(): void&lt;br&gt;+ onSetData(WebDataFrame): void&lt;/p&gt;&lt;p style=&quot;margin:0px;margin-left:4px;&quot;&gt;+ onEnd(): void&lt;/p&gt;" style="verticalAlign=top;align=left;overflow=fill;html=1;whiteSpace=wrap;" parent="1" vertex="1">
          <mxGeometry x="1020" y="340" width="210" height="130" as="geometry" />
        </mxCell>
        <mxCell id="rGbhJyJhz0m8njLA5riN-13" value="&lt;p style=&quot;margin:0px;margin-top:4px;text-align:center;&quot;&gt;&lt;i&gt;&amp;lt;&amp;lt;Enumeration&amp;gt;&amp;gt;&lt;/i&gt;&lt;br&gt;&lt;b&gt;WebSourceStatus&lt;/b&gt;&lt;/p&gt;&lt;hr size=&quot;1&quot; style=&quot;border-style:solid;&quot;&gt;&lt;p style=&quot;margin:0px;margin-left:4px;&quot;&gt;SUCCESS&lt;/p&gt;&lt;p style=&quot;margin:0px;margin-left:4px;&quot;&gt;FAILURE_NO_INTERNET&lt;/p&gt;&lt;p style=&quot;margin:0px;margin-left:4px;&quot;&gt;FAILURE_NO_DATA&lt;/p&gt;" style="verticalAlign=top;align=left;overflow=fill;html=1;whiteSpace=wrap;" parent="1" vertex="1">
          <mxGeometry x="2760" y="85" width="190" height="120" as="geometry" />
        </mxCell>
        <mxCell id="rGbhJyJhz0m8njLA5riN-15" value="&lt;p style=&quot;margin:0px;margin-top:4px;text-align:center;&quot;&gt;&lt;b&gt;WebDataFrame&lt;/b&gt;&lt;/p&gt;&lt;hr size=&quot;1&quot; style=&quot;border-style:solid;&quot;&gt;&lt;p style=&quot;margin:0px;margin-left:4px;&quot;&gt;+ source: String&lt;/p&gt;&lt;p style=&quot;margin:0px;margin-left:4px;&quot;&gt;+ symbol: String&lt;/p&gt;&lt;p style=&quot;margin:0px;margin-left:4px;&quot;&gt;+ timestamp: int&lt;/p&gt;&lt;p style=&quot;margin:0px;margin-left:4px;&quot;&gt;+ open: float&lt;/p&gt;&lt;p style=&quot;margin:0px;margin-left:4px;&quot;&gt;+ close: float&lt;/p&gt;&lt;p style=&quot;margin:0px;margin-left:4px;&quot;&gt;+ high: float&lt;/p&gt;&lt;p style=&quot;margin:0px;margin-left:4px;&quot;&gt;+ low: float&lt;/p&gt;&lt;p style=&quot;margin:0px;margin-left:4px;&quot;&gt;+ volume: float&lt;/p&gt;" style="verticalAlign=top;align=left;overflow=fill;html=1;whiteSpace=wrap;" parent="1" vertex="1">
          <mxGeometry x="745" y="80" width="160" height="160" as="geometry" />
        </mxCell>
        <mxCell id="rGbhJyJhz0m8njLA5riN-16" value="&lt;p style=&quot;margin:0px;margin-top:4px;text-align:center;&quot;&gt;&lt;i&gt;&amp;lt;&amp;lt;Interface&amp;gt;&amp;gt;&lt;/i&gt;&lt;br&gt;&lt;b&gt;DataService&lt;/b&gt;&lt;/p&gt;&lt;hr size=&quot;1&quot; style=&quot;border-style:solid;&quot;&gt;&lt;p style=&quot;margin:0px;margin-left:4px;&quot;&gt;&lt;br&gt;&lt;/p&gt;&lt;hr size=&quot;1&quot; style=&quot;border-style:solid;&quot;&gt;&lt;p style=&quot;margin:0px;margin-left:4px;&quot;&gt;+ getName(): String&lt;br&gt;&lt;/p&gt;" style="verticalAlign=top;align=left;overflow=fill;html=1;whiteSpace=wrap;" parent="1" vertex="1">
          <mxGeometry x="735" y="670" width="180" height="120" as="geometry" />
        </mxCell>
        <mxCell id="rGbhJyJhz0m8njLA5riN-18" value="&lt;p style=&quot;margin:0px;margin-top:4px;text-align:center;&quot;&gt;&lt;b&gt;&lt;i&gt;FileExporterService&lt;/i&gt;&lt;/b&gt;&lt;/p&gt;&lt;hr size=&quot;1&quot; style=&quot;border-style:solid;&quot;&gt;&lt;p style=&quot;margin:0px;margin-left:4px;&quot;&gt;- creator: BufferedWriterCreator&lt;/p&gt;&lt;p style=&quot;margin:0px;margin-left:4px;&quot;&gt;- writer: BufferedWriter&lt;/p&gt;&lt;hr size=&quot;1&quot; style=&quot;border-style:solid;&quot;&gt;&lt;p style=&quot;margin:0px;margin-left:4px;&quot;&gt;+ FileExporterService()&lt;/p&gt;&lt;p style=&quot;margin:0px;margin-left:4px;&quot;&gt;+ FileExporterService(BufferedWriterCreator)&lt;/p&gt;&lt;p style=&quot;margin: 0px 0px 0px 4px;&quot;&gt;+ onBegin(): void&lt;/p&gt;&lt;p style=&quot;margin: 0px 0px 0px 4px;&quot;&gt;+&amp;nbsp;&lt;i&gt;onSetData(&lt;span style=&quot;background-color: transparent; color: light-dark(rgb(0, 0, 0), rgb(255, 255, 255));&quot;&gt;WebDataFrame&lt;/span&gt;&lt;/i&gt;&lt;span style=&quot;background-color: transparent; color: light-dark(rgb(0, 0, 0), rgb(255, 255, 255));&quot;&gt;&lt;i&gt;)&lt;/i&gt;: void&lt;/span&gt;&lt;/p&gt;&lt;p style=&quot;margin: 0px 0px 0px 4px;&quot;&gt;+ onEnd(): void&lt;/p&gt;&lt;p style=&quot;margin: 0px 0px 0px 4px;&quot;&gt;+ getName(): String&lt;/p&gt;&lt;p style=&quot;margin:0px;margin-left:4px;&quot;&gt;# &lt;i&gt;getCustomNameAndExtension()&lt;/i&gt;: String&lt;/p&gt;&lt;p style=&quot;margin:0px;margin-left:4px;&quot;&gt;# writeToFile(String): void&lt;/p&gt;" style="verticalAlign=top;align=left;overflow=fill;html=1;whiteSpace=wrap;" parent="1" vertex="1">
          <mxGeometry x="705" y="900" width="255" height="220" as="geometry" />
        </mxCell>
        <mxCell id="rGbhJyJhz0m8njLA5riN-20" value="&lt;p style=&quot;margin:0px;margin-top:4px;text-align:center;&quot;&gt;&lt;b&gt;CSVExporterService&lt;/b&gt;&lt;/p&gt;&lt;hr size=&quot;1&quot; style=&quot;border-style:solid;&quot;&gt;&lt;p style=&quot;margin:0px;margin-left:4px;&quot;&gt;&lt;br&gt;&lt;/p&gt;&lt;hr size=&quot;1&quot; style=&quot;border-style:solid;&quot;&gt;&lt;p style=&quot;margin:0px;margin-left:4px;&quot;&gt;&lt;span style=&quot;background-color: transparent; color: light-dark(rgb(0, 0, 0), rgb(255, 255, 255));&quot;&gt;+ onBegin(): void&lt;/span&gt;&lt;/p&gt;&lt;p style=&quot;margin: 0px 0px 0px 4px;&quot;&gt;+&amp;nbsp;onSetData(&lt;span style=&quot;background-color: transparent; color: light-dark(rgb(0, 0, 0), rgb(255, 255, 255));&quot;&gt;WebDataFrame&lt;/span&gt;&lt;span style=&quot;background-color: transparent; color: light-dark(rgb(0, 0, 0), rgb(255, 255, 255));&quot;&gt;): void&lt;/span&gt;&lt;/p&gt;&lt;p style=&quot;margin: 0px 0px 0px 4px;&quot;&gt;+ onEnd(): void&lt;/p&gt;&lt;p style=&quot;margin: 0px 0px 0px 4px;&quot;&gt;+ getName(): String&lt;/p&gt;&lt;p style=&quot;margin: 0px 0px 0px 4px;&quot;&gt;#&amp;nbsp;getCustomNameAndExtension(): String&lt;/p&gt;" style="verticalAlign=top;align=left;overflow=fill;html=1;whiteSpace=wrap;" parent="1" vertex="1">
          <mxGeometry x="120" y="1360" width="250" height="140" as="geometry" />
        </mxCell>
        <mxCell id="rGbhJyJhz0m8njLA5riN-21" value="&lt;p style=&quot;margin:0px;margin-top:4px;text-align:center;&quot;&gt;&lt;b&gt;JSONExporter&lt;/b&gt;&lt;b style=&quot;background-color: transparent; color: light-dark(rgb(0, 0, 0), rgb(255, 255, 255));&quot;&gt;Service&lt;/b&gt;&lt;/p&gt;&lt;hr size=&quot;1&quot; style=&quot;border-style:solid;&quot;&gt;&lt;p style=&quot;margin:0px;margin-left:4px;&quot;&gt;&lt;br&gt;&lt;/p&gt;&lt;hr size=&quot;1&quot; style=&quot;border-style:solid;&quot;&gt;&lt;p style=&quot;margin:0px;margin-left:4px;&quot;&gt;&lt;span style=&quot;background-color: transparent; color: light-dark(rgb(0, 0, 0), rgb(255, 255, 255));&quot;&gt;+ onBegin(): void&lt;/span&gt;&lt;/p&gt;&lt;p style=&quot;margin: 0px 0px 0px 4px;&quot;&gt;+&amp;nbsp;onSetData(&lt;span style=&quot;background-color: transparent; color: light-dark(rgb(0, 0, 0), rgb(255, 255, 255));&quot;&gt;WebDataFrame&lt;/span&gt;&lt;span style=&quot;background-color: transparent; color: light-dark(rgb(0, 0, 0), rgb(255, 255, 255));&quot;&gt;): void&lt;/span&gt;&lt;/p&gt;&lt;p style=&quot;margin: 0px 0px 0px 4px;&quot;&gt;+ onEnd(): void&lt;/p&gt;&lt;p style=&quot;margin: 0px 0px 0px 4px;&quot;&gt;+ getName(): String&lt;/p&gt;&lt;p style=&quot;margin: 0px 0px 0px 4px;&quot;&gt;#&amp;nbsp;getCustomNameAndExtension(): String&lt;/p&gt;" style="verticalAlign=top;align=left;overflow=fill;html=1;whiteSpace=wrap;" parent="1" vertex="1">
          <mxGeometry x="420" y="1420" width="250" height="140" as="geometry" />
        </mxCell>
        <mxCell id="rGbhJyJhz0m8njLA5riN-22" value="&lt;p style=&quot;margin:0px;margin-top:4px;text-align:center;&quot;&gt;&lt;b&gt;XMLExporter&lt;/b&gt;&lt;b style=&quot;background-color: transparent; color: light-dark(rgb(0, 0, 0), rgb(255, 255, 255));&quot;&gt;Service&lt;/b&gt;&lt;/p&gt;&lt;hr size=&quot;1&quot; style=&quot;border-style:solid;&quot;&gt;&lt;p style=&quot;margin:0px;margin-left:4px;&quot;&gt;&lt;br&gt;&lt;/p&gt;&lt;hr size=&quot;1&quot; style=&quot;border-style:solid;&quot;&gt;&lt;p style=&quot;margin:0px;margin-left:4px;&quot;&gt;&lt;span style=&quot;background-color: transparent; color: light-dark(rgb(0, 0, 0), rgb(255, 255, 255));&quot;&gt;+ onBegin(): void&lt;/span&gt;&lt;/p&gt;&lt;p style=&quot;margin: 0px 0px 0px 4px;&quot;&gt;+&amp;nbsp;onSetData(&lt;span style=&quot;background-color: transparent; color: light-dark(rgb(0, 0, 0), rgb(255, 255, 255));&quot;&gt;WebDataFrame&lt;/span&gt;&lt;span style=&quot;background-color: transparent; color: light-dark(rgb(0, 0, 0), rgb(255, 255, 255));&quot;&gt;): void&lt;/span&gt;&lt;/p&gt;&lt;p style=&quot;margin: 0px 0px 0px 4px;&quot;&gt;+ onEnd(): void&lt;/p&gt;&lt;p style=&quot;margin: 0px 0px 0px 4px;&quot;&gt;+ getName(): String&lt;/p&gt;&lt;p style=&quot;margin: 0px 0px 0px 4px;&quot;&gt;#&amp;nbsp;getCustomNameAndExtension(): String&lt;/p&gt;" style="verticalAlign=top;align=left;overflow=fill;html=1;whiteSpace=wrap;" parent="1" vertex="1">
          <mxGeometry x="1000" y="1420" width="250" height="140" as="geometry" />
        </mxCell>
        <mxCell id="rGbhJyJhz0m8njLA5riN-23" value="&lt;p style=&quot;margin:0px;margin-top:4px;text-align:center;&quot;&gt;&lt;b&gt;JSONExporter&lt;/b&gt;&lt;b style=&quot;background-color: transparent; color: light-dark(rgb(0, 0, 0), rgb(255, 255, 255));&quot;&gt;Service&lt;/b&gt;&lt;/p&gt;&lt;hr size=&quot;1&quot; style=&quot;border-style:solid;&quot;&gt;&lt;p style=&quot;margin:0px;margin-left:4px;&quot;&gt;&lt;br&gt;&lt;/p&gt;&lt;hr size=&quot;1&quot; style=&quot;border-style:solid;&quot;&gt;&lt;p style=&quot;margin:0px;margin-left:4px;&quot;&gt;&lt;span style=&quot;background-color: transparent; color: light-dark(rgb(0, 0, 0), rgb(255, 255, 255));&quot;&gt;+ onBegin(): void&lt;/span&gt;&lt;/p&gt;&lt;p style=&quot;margin: 0px 0px 0px 4px;&quot;&gt;+&amp;nbsp;onSetData(&lt;span style=&quot;background-color: transparent; color: light-dark(rgb(0, 0, 0), rgb(255, 255, 255));&quot;&gt;WebDataFrame&lt;/span&gt;&lt;span style=&quot;background-color: transparent; color: light-dark(rgb(0, 0, 0), rgb(255, 255, 255));&quot;&gt;): void&lt;/span&gt;&lt;/p&gt;&lt;p style=&quot;margin: 0px 0px 0px 4px;&quot;&gt;+ onEnd(): void&lt;/p&gt;&lt;p style=&quot;margin: 0px 0px 0px 4px;&quot;&gt;+ getName(): String&lt;/p&gt;&lt;p style=&quot;margin: 0px 0px 0px 4px;&quot;&gt;#&amp;nbsp;getCustomNameAndExtension(): String&lt;/p&gt;" style="verticalAlign=top;align=left;overflow=fill;html=1;whiteSpace=wrap;" parent="1" vertex="1">
          <mxGeometry x="1300" y="1360" width="250" height="140" as="geometry" />
        </mxCell>
        <mxCell id="rGbhJyJhz0m8njLA5riN-24" value="&lt;p style=&quot;margin:0px;margin-top:4px;text-align:center;&quot;&gt;&lt;i&gt;&amp;lt;&amp;lt;Interface&amp;gt;&amp;gt;&lt;/i&gt;&lt;br&gt;&lt;b&gt;BufferedWriterCreator&lt;/b&gt;&lt;/p&gt;&lt;hr size=&quot;1&quot; style=&quot;border-style:solid;&quot;&gt;&lt;p style=&quot;margin:0px;margin-left:4px;&quot;&gt;&lt;br&gt;&lt;/p&gt;&lt;hr size=&quot;1&quot; style=&quot;border-style:solid;&quot;&gt;&lt;p style=&quot;margin:0px;margin-left:4px;&quot;&gt;+ createWriter(String): BufferedWriter&lt;br&gt;&lt;/p&gt;" style="verticalAlign=top;align=left;overflow=fill;html=1;whiteSpace=wrap;" parent="1" vertex="1">
          <mxGeometry x="3175" y="605" width="220" height="120" as="geometry" />
        </mxCell>
        <mxCell id="rGbhJyJhz0m8njLA5riN-25" value="&lt;p style=&quot;margin:0px;margin-top:4px;text-align:center;&quot;&gt;&lt;b&gt;FileBufferedWriterCreator&lt;/b&gt;&lt;/p&gt;&lt;hr size=&quot;1&quot; style=&quot;border-style:solid;&quot;&gt;&lt;p style=&quot;margin:0px;margin-left:4px;&quot;&gt;&lt;br&gt;&lt;/p&gt;&lt;hr size=&quot;1&quot; style=&quot;border-style:solid;&quot;&gt;&lt;p style=&quot;margin:0px;margin-left:4px;&quot;&gt;+ createWriter(String): BufferedWriter&lt;/p&gt;&lt;p style=&quot;margin:0px;margin-left:4px;&quot;&gt;- ensureDirectoryExists(String): void&lt;/p&gt;" style="verticalAlign=top;align=left;overflow=fill;html=1;whiteSpace=wrap;" parent="1" vertex="1">
          <mxGeometry x="2975" y="815" width="250" height="140" as="geometry" />
        </mxCell>
        <mxCell id="rGbhJyJhz0m8njLA5riN-26" value="&lt;p style=&quot;margin:0px;margin-top:4px;text-align:center;&quot;&gt;&lt;b&gt;StringBufferedWriterCreator&lt;/b&gt;&lt;/p&gt;&lt;hr size=&quot;1&quot; style=&quot;border-style:solid;&quot;&gt;&lt;p style=&quot;margin:0px;margin-left:4px;&quot;&gt;- stringWriter: StringWriter&lt;/p&gt;&lt;hr size=&quot;1&quot; style=&quot;border-style:solid;&quot;&gt;&lt;p style=&quot;margin:0px;margin-left:4px;&quot;&gt;+ createWriter(String): BufferedWriter&lt;/p&gt;&lt;p style=&quot;margin:0px;margin-left:4px;&quot;&gt;+ getString(): String&lt;/p&gt;" style="verticalAlign=top;align=left;overflow=fill;html=1;whiteSpace=wrap;" parent="1" vertex="1">
          <mxGeometry x="3355" y="815" width="250" height="140" as="geometry" />
        </mxCell>
        <mxCell id="rGbhJyJhz0m8njLA5riN-27" value="&lt;p style=&quot;margin:0px;margin-top:4px;text-align:center;&quot;&gt;&lt;b&gt;BinanceDownloader&lt;/b&gt;&lt;/p&gt;&lt;hr size=&quot;1&quot; style=&quot;border-style:solid;&quot;&gt;&lt;p style=&quot;margin:0px;margin-left:4px;&quot;&gt;&lt;br&gt;&lt;/p&gt;&lt;hr size=&quot;1&quot; style=&quot;border-style:solid;&quot;&gt;&lt;p style=&quot;margin:0px;margin-left:4px;&quot;&gt;+ getName(): String&lt;br&gt;+ downloadFromWeb(): WebSourceStatus&lt;span style=&quot;background-color: transparent; color: light-dark(rgb(0, 0, 0), rgb(255, 255, 255));&quot;&gt;&lt;/span&gt;&lt;/p&gt;" style="verticalAlign=top;align=left;overflow=fill;html=1;whiteSpace=wrap;" parent="1" vertex="1">
          <mxGeometry x="2860" y="320" width="250" height="120" as="geometry" />
        </mxCell>
        <mxCell id="rGbhJyJhz0m8njLA5riN-28" value="&lt;p style=&quot;margin:0px;margin-top:4px;text-align:center;&quot;&gt;&lt;b&gt;CoinbaseDownloader&lt;/b&gt;&lt;/p&gt;&lt;hr size=&quot;1&quot; style=&quot;border-style:solid;&quot;&gt;&lt;p style=&quot;margin:0px;margin-left:4px;&quot;&gt;&lt;br&gt;&lt;/p&gt;&lt;hr size=&quot;1&quot; style=&quot;border-style:solid;&quot;&gt;&lt;p style=&quot;margin:0px;margin-left:4px;&quot;&gt;+ getName(): String&lt;br&gt;+ downloadFromWeb(): WebSourceStatus&lt;span style=&quot;background-color: transparent; color: light-dark(rgb(0, 0, 0), rgb(255, 255, 255));&quot;&gt;&lt;/span&gt;&lt;/p&gt;" style="verticalAlign=top;align=left;overflow=fill;html=1;whiteSpace=wrap;" parent="1" vertex="1">
          <mxGeometry x="3165" y="320" width="250" height="120" as="geometry" />
        </mxCell>
        <mxCell id="rGbhJyJhz0m8njLA5riN-29" value="&lt;p style=&quot;margin:0px;margin-top:4px;text-align:center;&quot;&gt;&lt;i&gt;&amp;lt;&amp;lt;Interface&amp;gt;&amp;gt;&lt;/i&gt;&lt;br&gt;&lt;b&gt;LoggingSink&lt;/b&gt;&lt;/p&gt;&lt;hr size=&quot;1&quot; style=&quot;border-style:solid;&quot;&gt;&lt;p style=&quot;margin:0px;margin-left:4px;&quot;&gt;&lt;br&gt;&lt;/p&gt;&lt;hr size=&quot;1&quot; style=&quot;border-style:solid;&quot;&gt;&lt;p style=&quot;margin:0px;margin-left:4px;&quot;&gt;+ debug(String): void&lt;/p&gt;&lt;p style=&quot;margin:0px;margin-left:4px;&quot;&gt;+ info(String): void&lt;/p&gt;&lt;p style=&quot;margin:0px;margin-left:4px;&quot;&gt;+ error(String): void&lt;/p&gt;&lt;p style=&quot;margin:0px;margin-left:4px;&quot;&gt;+ close(): void&lt;/p&gt;" style="verticalAlign=top;align=left;overflow=fill;html=1;whiteSpace=wrap;" parent="1" vertex="1">
          <mxGeometry x="3220" y="1220" width="180" height="160" as="geometry" />
        </mxCell>
        <mxCell id="rGbhJyJhz0m8njLA5riN-30" value="&lt;p style=&quot;margin:0px;margin-top:4px;text-align:center;&quot;&gt;&lt;b&gt;ConsoleLoggingSink&lt;/b&gt;&lt;/p&gt;&lt;hr size=&quot;1&quot; style=&quot;border-style:solid;&quot;&gt;&lt;p style=&quot;margin:0px;margin-left:4px;&quot;&gt;&lt;br&gt;&lt;/p&gt;&lt;hr size=&quot;1&quot; style=&quot;border-style:solid;&quot;&gt;&lt;p style=&quot;margin: 0px 0px 0px 4px;&quot;&gt;+ debug(String): void&lt;/p&gt;&lt;p style=&quot;margin: 0px 0px 0px 4px;&quot;&gt;+ info(String): void&lt;/p&gt;&lt;p style=&quot;margin: 0px 0px 0px 4px;&quot;&gt;+ error(String): void&lt;/p&gt;" style="verticalAlign=top;align=left;overflow=fill;html=1;whiteSpace=wrap;" parent="1" vertex="1">
          <mxGeometry x="3045" y="1500" width="160" height="120" as="geometry" />
        </mxCell>
        <mxCell id="rGbhJyJhz0m8njLA5riN-31" value="&lt;p style=&quot;margin:0px;margin-top:4px;text-align:center;&quot;&gt;&lt;b&gt;FileLoggingSink&lt;/b&gt;&lt;/p&gt;&lt;hr size=&quot;1&quot; style=&quot;border-style:solid;&quot;&gt;&lt;p style=&quot;margin:0px;margin-left:4px;&quot;&gt;- writer: BufferedWriter&lt;/p&gt;&lt;hr size=&quot;1&quot; style=&quot;border-style:solid;&quot;&gt;&lt;p style=&quot;margin: 0px 0px 0px 4px;&quot;&gt;+&amp;nbsp;FileLoggingSink()&lt;/p&gt;&lt;p style=&quot;margin: 0px 0px 0px 4px;&quot;&gt;+ debug(String): void&lt;/p&gt;&lt;p style=&quot;margin: 0px 0px 0px 4px;&quot;&gt;+ info(String): void&lt;/p&gt;&lt;p style=&quot;margin: 0px 0px 0px 4px;&quot;&gt;+ error(String): void&lt;/p&gt;&lt;p style=&quot;margin: 0px 0px 0px 4px;&quot;&gt;+ close(): void&lt;/p&gt;&lt;p style=&quot;margin: 0px 0px 0px 4px;&quot;&gt;- ensureDirectoryExists(): void&lt;/p&gt;&lt;p style=&quot;margin: 0px 0px 0px 4px;&quot;&gt;- getFileName(): String&lt;/p&gt;&lt;p style=&quot;margin: 0px 0px 0px 4px;&quot;&gt;- writeToFile(String): void&lt;/p&gt;" style="verticalAlign=top;align=left;overflow=fill;html=1;whiteSpace=wrap;" parent="1" vertex="1">
          <mxGeometry x="3405" y="1500" width="200" height="200" as="geometry" />
        </mxCell>
        <mxCell id="rGbhJyJhz0m8njLA5riN-32" value="&lt;p style=&quot;margin:0px;margin-top:4px;text-align:center;&quot;&gt;&lt;b&gt;Logger&lt;/b&gt;&lt;/p&gt;&lt;hr size=&quot;1&quot; style=&quot;border-style:solid;&quot;&gt;&lt;p style=&quot;margin:0px;margin-left:4px;&quot;&gt;- instance: Logger&lt;/p&gt;&lt;p style=&quot;margin:0px;margin-left:4px;&quot;&gt;- sinks: HashSet&amp;lt;LoggingSink&amp;gt;&lt;/p&gt;&lt;p style=&quot;margin:0px;margin-left:4px;&quot;&gt;- currentLevel: LoggingLevel&lt;/p&gt;&lt;hr size=&quot;1&quot; style=&quot;border-style:solid;&quot;&gt;&lt;p style=&quot;margin: 0px 0px 0px 4px;&quot;&gt;+ getInstance(): Logger&lt;/p&gt;&lt;p style=&quot;margin: 0px 0px 0px 4px;&quot;&gt;+&amp;nbsp;&lt;u&gt;debug(String)&lt;/u&gt;: void&lt;/p&gt;&lt;p style=&quot;margin: 0px 0px 0px 4px;&quot;&gt;+&amp;nbsp;&lt;u&gt;info(String)&lt;/u&gt;: void&lt;/p&gt;&lt;p style=&quot;margin: 0px 0px 0px 4px;&quot;&gt;+&amp;nbsp;&lt;u&gt;error(String)&lt;/u&gt;: void&lt;/p&gt;&lt;p style=&quot;margin: 0px 0px 0px 4px;&quot;&gt;+&amp;nbsp;&lt;u&gt;shutdown(String)&lt;/u&gt;: void&lt;/p&gt;&lt;p style=&quot;margin: 0px 0px 0px 4px;&quot;&gt;+&amp;nbsp;setLevel(LoggingLevel): void&lt;/p&gt;&lt;p style=&quot;margin: 0px 0px 0px 4px;&quot;&gt;+ addSink(LoggingSink): void&lt;/p&gt;&lt;p style=&quot;margin:0px;margin-left:4px;&quot;&gt;- Logger()&lt;/p&gt;" style="verticalAlign=top;align=left;overflow=fill;html=1;whiteSpace=wrap;" parent="1" vertex="1">
          <mxGeometry x="2820" y="1180" width="240" height="240" as="geometry" />
        </mxCell>
        <mxCell id="rGbhJyJhz0m8njLA5riN-33" value="&lt;p style=&quot;margin:0px;margin-top:4px;text-align:center;&quot;&gt;&lt;i&gt;&amp;lt;&amp;lt;Enumeration&amp;gt;&amp;gt;&lt;/i&gt;&lt;br&gt;&lt;b&gt;LoggingLevel&lt;/b&gt;&lt;/p&gt;&lt;hr size=&quot;1&quot; style=&quot;border-style:solid;&quot;&gt;&lt;p style=&quot;margin:0px;margin-left:4px;&quot;&gt;DEBUG&lt;/p&gt;&lt;p style=&quot;margin:0px;margin-left:4px;&quot;&gt;INFO&lt;/p&gt;&lt;p style=&quot;margin:0px;margin-left:4px;&quot;&gt;ERROR&lt;/p&gt;" style="verticalAlign=top;align=left;overflow=fill;html=1;whiteSpace=wrap;" parent="1" vertex="1">
          <mxGeometry x="2540" y="1240" width="190" height="120" as="geometry" />
        </mxCell>
        <mxCell id="rGbhJyJhz0m8njLA5riN-34" value="&lt;p style=&quot;margin:0px;margin-top:4px;text-align:center;&quot;&gt;&lt;b&gt;DataManager&lt;/b&gt;&lt;/p&gt;&lt;hr size=&quot;1&quot; style=&quot;border-style:solid;&quot;&gt;&lt;p style=&quot;margin:0px;margin-left:4px;&quot;&gt;- &lt;u&gt;instance&lt;/u&gt;: DataManager&lt;/p&gt;&lt;p style=&quot;margin:0px;margin-left:4px;&quot;&gt;- observers: HashSet&amp;lt;WebDataReceiver&amp;gt;&lt;/p&gt;&lt;hr size=&quot;1&quot; style=&quot;border-style:solid;&quot;&gt;&lt;p style=&quot;margin: 0px 0px 0px 4px;&quot;&gt;&lt;span style=&quot;background-color: transparent; color: light-dark(rgb(0, 0, 0), rgb(255, 255, 255));&quot;&gt;+ &lt;u&gt;getInstance()&lt;/u&gt;: DataManager&lt;/span&gt;&lt;/p&gt;&lt;p style=&quot;margin: 0px 0px 0px 4px;&quot;&gt;&lt;span style=&quot;background-color: transparent; color: light-dark(rgb(0, 0, 0), rgb(255, 255, 255));&quot;&gt;+ addObserver(WebDataReceiver): void&lt;/span&gt;&lt;/p&gt;&lt;p style=&quot;margin: 0px 0px 0px 4px;&quot;&gt;+ removeObserver(WebDataReceiver): void&lt;span style=&quot;background-color: transparent; color: light-dark(rgb(0, 0, 0), rgb(255, 255, 255));&quot;&gt;&lt;/span&gt;&lt;/p&gt;&lt;p style=&quot;margin: 0px 0px 0px 4px;&quot;&gt;+ initRepo(): void&lt;/p&gt;&lt;p style=&quot;margin: 0px 0px 0px 4px;&quot;&gt;+ flushRepo(): void&lt;/p&gt;&lt;p style=&quot;margin: 0px 0px 0px 4px;&quot;&gt;+ pushWebDataFrame(WebDataFrame): void&lt;/p&gt;&lt;p style=&quot;margin:0px;margin-left:4px;&quot;&gt;- DataManager()&lt;/p&gt;" style="verticalAlign=top;align=left;overflow=fill;html=1;whiteSpace=wrap;" parent="1" vertex="1">
          <mxGeometry x="1640" y="285" width="260" height="240" as="geometry" />
        </mxCell>
        <mxCell id="YM9OeA3lHoc0OY5sdOXE-1" value="" style="endArrow=block;dashed=1;endFill=0;endSize=12;html=1;rounded=0;entryX=0.25;entryY=1;entryDx=0;entryDy=0;" parent="1" source="rGbhJyJhz0m8njLA5riN-25" target="rGbhJyJhz0m8njLA5riN-24" edge="1">
          <mxGeometry width="160" relative="1" as="geometry">
            <mxPoint x="3100" y="655" as="sourcePoint" />
            <mxPoint x="3100" y="655" as="targetPoint" />
          </mxGeometry>
        </mxCell>
        <mxCell id="YM9OeA3lHoc0OY5sdOXE-2" value="" style="endArrow=block;dashed=1;endFill=0;endSize=12;html=1;rounded=0;entryX=0.75;entryY=1;entryDx=0;entryDy=0;" parent="1" source="rGbhJyJhz0m8njLA5riN-26" target="rGbhJyJhz0m8njLA5riN-24" edge="1">
          <mxGeometry width="160" relative="1" as="geometry">
            <mxPoint x="3480" y="655" as="sourcePoint" />
            <mxPoint x="3480" y="655" as="targetPoint" />
          </mxGeometry>
        </mxCell>
        <mxCell id="YM9OeA3lHoc0OY5sdOXE-3" value="" style="endArrow=block;dashed=1;endFill=0;endSize=12;html=1;rounded=0;entryX=0.25;entryY=1;entryDx=0;entryDy=0;" parent="1" source="rGbhJyJhz0m8njLA5riN-27" target="rGbhJyJhz0m8njLA5riN-10" edge="1">
          <mxGeometry width="160" relative="1" as="geometry">
            <mxPoint x="3105" y="160" as="sourcePoint" />
            <mxPoint x="3105" y="160" as="targetPoint" />
          </mxGeometry>
        </mxCell>
        <mxCell id="YM9OeA3lHoc0OY5sdOXE-4" value="" style="endArrow=block;dashed=1;endFill=0;endSize=12;html=1;rounded=0;entryX=0.5;entryY=1;entryDx=0;entryDy=0;" parent="1" source="rGbhJyJhz0m8njLA5riN-28" target="rGbhJyJhz0m8njLA5riN-10" edge="1">
          <mxGeometry width="160" relative="1" as="geometry">
            <mxPoint x="3485" y="160" as="sourcePoint" />
            <mxPoint x="3290" y="220" as="targetPoint" />
          </mxGeometry>
        </mxCell>
        <mxCell id="YM9OeA3lHoc0OY5sdOXE-5" value="" style="endArrow=block;dashed=1;endFill=0;endSize=12;html=1;rounded=0;entryX=0.25;entryY=1;entryDx=0;entryDy=0;" parent="1" source="rGbhJyJhz0m8njLA5riN-30" target="rGbhJyJhz0m8njLA5riN-29" edge="1">
          <mxGeometry width="160" relative="1" as="geometry">
            <mxPoint x="3125" y="1340" as="sourcePoint" />
            <mxPoint x="3125" y="1340" as="targetPoint" />
          </mxGeometry>
        </mxCell>
        <mxCell id="YM9OeA3lHoc0OY5sdOXE-6" value="" style="endArrow=block;dashed=1;endFill=0;endSize=12;html=1;rounded=0;entryX=0.75;entryY=1;entryDx=0;entryDy=0;" parent="1" source="rGbhJyJhz0m8njLA5riN-31" target="rGbhJyJhz0m8njLA5riN-29" edge="1">
          <mxGeometry width="160" relative="1" as="geometry">
            <mxPoint x="3520" y="1340" as="sourcePoint" />
            <mxPoint x="3520" y="1340" as="targetPoint" />
          </mxGeometry>
        </mxCell>
        <mxCell id="YM9OeA3lHoc0OY5sdOXE-7" value="" style="endArrow=block;dashed=1;endFill=0;endSize=12;html=1;rounded=0;entryX=0.5;entryY=1;entryDx=0;entryDy=0;" parent="1" target="rGbhJyJhz0m8njLA5riN-16" edge="1">
          <mxGeometry width="160" relative="1" as="geometry">
            <mxPoint x="824.09" y="900" as="sourcePoint" />
            <mxPoint x="824.09" y="740" as="targetPoint" />
          </mxGeometry>
        </mxCell>
        <mxCell id="YM9OeA3lHoc0OY5sdOXE-8" value="" style="endArrow=block;endSize=16;endFill=0;html=1;rounded=0;entryX=0.25;entryY=1;entryDx=0;entryDy=0;exitX=0.5;exitY=0;exitDx=0;exitDy=0;" parent="1" edge="1">
          <mxGeometry width="160" relative="1" as="geometry">
            <mxPoint x="860" y="670" as="sourcePoint" />
            <mxPoint x="1107.5" y="469.9999999999999" as="targetPoint" />
          </mxGeometry>
        </mxCell>
        <mxCell id="YM9OeA3lHoc0OY5sdOXE-10" value="" style="endArrow=block;endSize=16;endFill=0;html=1;rounded=0;entryX=0.108;entryY=1.005;entryDx=0;entryDy=0;entryPerimeter=0;" parent="1" source="rGbhJyJhz0m8njLA5riN-20" target="rGbhJyJhz0m8njLA5riN-18" edge="1">
          <mxGeometry width="160" relative="1" as="geometry">
            <mxPoint x="525" y="1220" as="sourcePoint" />
            <mxPoint x="525" y="1220" as="targetPoint" />
          </mxGeometry>
        </mxCell>
        <mxCell id="YM9OeA3lHoc0OY5sdOXE-11" value="" style="endArrow=block;endSize=16;endFill=0;html=1;rounded=0;entryX=0.369;entryY=0.986;entryDx=0;entryDy=0;entryPerimeter=0;" parent="1" source="rGbhJyJhz0m8njLA5riN-21" target="rGbhJyJhz0m8njLA5riN-18" edge="1">
          <mxGeometry width="160" relative="1" as="geometry">
            <mxPoint x="825" y="1220" as="sourcePoint" />
            <mxPoint x="825" y="1220" as="targetPoint" />
          </mxGeometry>
        </mxCell>
        <mxCell id="YM9OeA3lHoc0OY5sdOXE-12" value="" style="endArrow=block;endSize=16;endFill=0;html=1;rounded=0;entryX=0.664;entryY=0.992;entryDx=0;entryDy=0;entryPerimeter=0;" parent="1" source="rGbhJyJhz0m8njLA5riN-22" target="rGbhJyJhz0m8njLA5riN-18" edge="1">
          <mxGeometry width="160" relative="1" as="geometry">
            <mxPoint x="1125" y="1220" as="sourcePoint" />
            <mxPoint x="1125" y="1220" as="targetPoint" />
          </mxGeometry>
        </mxCell>
        <mxCell id="YM9OeA3lHoc0OY5sdOXE-13" value="" style="endArrow=block;endSize=16;endFill=0;html=1;rounded=0;entryX=0.923;entryY=1.005;entryDx=0;entryDy=0;entryPerimeter=0;" parent="1" source="rGbhJyJhz0m8njLA5riN-23" target="rGbhJyJhz0m8njLA5riN-18" edge="1">
          <mxGeometry width="160" relative="1" as="geometry">
            <mxPoint x="1435" y="1220" as="sourcePoint" />
            <mxPoint x="940" y="1140" as="targetPoint" />
          </mxGeometry>
        </mxCell>
        <mxCell id="YM9OeA3lHoc0OY5sdOXE-15" value="&lt;p style=&quot;margin:0px;margin-top:4px;text-align:center;&quot;&gt;&lt;b&gt;CandlesReadPanel&lt;/b&gt;&lt;/p&gt;&lt;hr size=&quot;1&quot; style=&quot;border-style:solid;&quot;&gt;&lt;p style=&quot;margin:0px;margin-left:4px;&quot;&gt;- counter: int&lt;/p&gt;&lt;p style=&quot;margin:0px;margin-left:4px;&quot;&gt;- textLabel: JLabel&lt;/p&gt;&lt;hr size=&quot;1&quot; style=&quot;border-style:solid;&quot;&gt;&lt;p style=&quot;margin:0px;margin-left:4px;&quot;&gt;+ CandlesReadPanel(JFrame)&lt;/p&gt;&lt;p style=&quot;margin: 0px 0px 0px 4px;&quot;&gt;+ onBegin(): void&lt;/p&gt;&lt;p style=&quot;margin: 0px 0px 0px 4px;&quot;&gt;+&amp;nbsp;onSetData(&lt;span style=&quot;background-color: transparent; color: light-dark(rgb(0, 0, 0), rgb(255, 255, 255));&quot;&gt;WebDataFrame&lt;/span&gt;&lt;span style=&quot;background-color: transparent; color: light-dark(rgb(0, 0, 0), rgb(255, 255, 255));&quot;&gt;): void&lt;/span&gt;&lt;/p&gt;&lt;p style=&quot;margin: 0px 0px 0px 4px;&quot;&gt;+ onEnd(): void&lt;/p&gt;&lt;p style=&quot;margin: 0px 0px 0px 4px;&quot;&gt;+ updateTextCounter(): void&lt;/p&gt;" style="verticalAlign=top;align=left;overflow=fill;html=1;whiteSpace=wrap;" parent="1" vertex="1">
          <mxGeometry x="1340" y="660" width="240" height="220" as="geometry" />
        </mxCell>
        <mxCell id="YM9OeA3lHoc0OY5sdOXE-16" value="" style="endArrow=block;dashed=1;endFill=0;endSize=12;html=1;rounded=0;entryX=0.548;entryY=0.991;entryDx=0;entryDy=0;entryPerimeter=0;" parent="1" source="YM9OeA3lHoc0OY5sdOXE-15" target="rGbhJyJhz0m8njLA5riN-11" edge="1">
          <mxGeometry width="160" relative="1" as="geometry">
            <mxPoint x="1380" y="510" as="sourcePoint" />
            <mxPoint x="1380" y="510" as="targetPoint" />
          </mxGeometry>
        </mxCell>
        <mxCell id="YM9OeA3lHoc0OY5sdOXE-21" value="" style="endArrow=none;html=1;edgeStyle=orthogonalEdgeStyle;rounded=0;entryX=1;entryY=0.5;entryDx=0;entryDy=0;" parent="1" source="rGbhJyJhz0m8njLA5riN-10" target="rGbhJyJhz0m8njLA5riN-13" edge="1">
          <mxGeometry relative="1" as="geometry">
            <mxPoint x="3005" y="145" as="sourcePoint" />
            <mxPoint x="3005" y="145" as="targetPoint" />
          </mxGeometry>
        </mxCell>
        <mxCell id="YM9OeA3lHoc0OY5sdOXE-24" value="" style="endArrow=none;html=1;edgeStyle=orthogonalEdgeStyle;rounded=0;entryX=0;entryY=0.5;entryDx=0;entryDy=0;" parent="1" source="rGbhJyJhz0m8njLA5riN-33" target="rGbhJyJhz0m8njLA5riN-32" edge="1">
          <mxGeometry relative="1" as="geometry">
            <mxPoint x="2670" y="1260" as="sourcePoint" />
            <mxPoint x="2830" y="1260" as="targetPoint" />
          </mxGeometry>
        </mxCell>
        <mxCell id="YM9OeA3lHoc0OY5sdOXE-28" value="" style="endArrow=none;html=1;edgeStyle=orthogonalEdgeStyle;rounded=0;entryX=0;entryY=0.25;entryDx=0;entryDy=0;" parent="1" source="rGbhJyJhz0m8njLA5riN-15" target="rGbhJyJhz0m8njLA5riN-34" edge="1">
          <mxGeometry relative="1" as="geometry">
            <mxPoint x="905" y="160" as="sourcePoint" />
            <mxPoint x="1065" y="160" as="targetPoint" />
          </mxGeometry>
        </mxCell>
        <mxCell id="YM9OeA3lHoc0OY5sdOXE-31" value="" style="endArrow=none;html=1;edgeStyle=orthogonalEdgeStyle;rounded=0;entryX=0;entryY=0.5;entryDx=0;entryDy=0;" parent="1" source="rGbhJyJhz0m8njLA5riN-15" target="rGbhJyJhz0m8njLA5riN-11" edge="1">
          <mxGeometry relative="1" as="geometry">
            <mxPoint x="825" y="240" as="sourcePoint" />
            <mxPoint x="825" y="400" as="targetPoint" />
            <Array as="points">
              <mxPoint x="825" y="405" />
            </Array>
          </mxGeometry>
        </mxCell>
        <mxCell id="YM9OeA3lHoc0OY5sdOXE-40" value="" style="endArrow=diamondThin;endFill=0;endSize=24;html=1;rounded=0;" parent="1" source="rGbhJyJhz0m8njLA5riN-11" target="rGbhJyJhz0m8njLA5riN-34" edge="1">
          <mxGeometry width="160" relative="1" as="geometry">
            <mxPoint x="1230" y="405" as="sourcePoint" />
            <mxPoint x="1390" y="405" as="targetPoint" />
          </mxGeometry>
        </mxCell>
        <mxCell id="YM9OeA3lHoc0OY5sdOXE-42" value="" style="endArrow=diamondThin;endFill=0;endSize=24;html=1;rounded=0;" parent="1" source="rGbhJyJhz0m8njLA5riN-29" target="rGbhJyJhz0m8njLA5riN-32" edge="1">
          <mxGeometry width="160" relative="1" as="geometry">
            <mxPoint x="3060" y="1300" as="sourcePoint" />
            <mxPoint x="3060" y="1300" as="targetPoint" />
          </mxGeometry>
        </mxCell>
        <mxCell id="mrblAdJvPCHrt3IJG2A_-1" value="&lt;p style=&quot;margin:0px;margin-top:4px;text-align:center;&quot;&gt;&lt;b&gt;CSVDataLoader&lt;/b&gt;&lt;/p&gt;&lt;hr size=&quot;1&quot; style=&quot;border-style:solid;&quot;&gt;&lt;p style=&quot;margin:0px;margin-left:4px;&quot;&gt;- fileName: String&lt;/p&gt;&lt;hr size=&quot;1&quot; style=&quot;border-style:solid;&quot;&gt;&lt;p style=&quot;margin:0px;margin-left:4px;&quot;&gt;+ CSVDataLoader(String)&lt;/p&gt;&lt;p style=&quot;margin:0px;margin-left:4px;&quot;&gt;+ getName(): String&lt;br&gt;+ downloadFromWeb(): WebSourceStatus&lt;span style=&quot;background-color: transparent; color: light-dark(rgb(0, 0, 0), rgb(255, 255, 255));&quot;&gt;&lt;/span&gt;&lt;/p&gt;" style="verticalAlign=top;align=left;overflow=fill;html=1;whiteSpace=wrap;" parent="1" vertex="1">
          <mxGeometry x="3480" y="320" width="250" height="120" as="geometry" />
        </mxCell>
        <mxCell id="mrblAdJvPCHrt3IJG2A_-2" value="" style="endArrow=block;dashed=1;endFill=0;endSize=12;html=1;rounded=0;entryX=0.75;entryY=1;entryDx=0;entryDy=0;" parent="1" source="mrblAdJvPCHrt3IJG2A_-1" target="rGbhJyJhz0m8njLA5riN-10" edge="1">
          <mxGeometry width="160" relative="1" as="geometry">
            <mxPoint x="3605" y="160" as="sourcePoint" />
            <mxPoint x="3605" y="160" as="targetPoint" />
          </mxGeometry>
        </mxCell>
        <mxCell id="mrblAdJvPCHrt3IJG2A_-4" value="&lt;p style=&quot;margin:0px;margin-top:4px;text-align:center;&quot;&gt;&lt;b&gt;RiskAnalysisService&lt;/b&gt;&lt;/p&gt;&lt;hr size=&quot;1&quot; style=&quot;border-style:solid;&quot;&gt;&lt;p style=&quot;margin:0px;margin-left:4px;&quot;&gt;-&amp;nbsp;pricesClose: ArrayList&amp;lt;float&amp;gt;&lt;/p&gt;&lt;hr size=&quot;1&quot; style=&quot;border-style:solid;&quot;&gt;&lt;p style=&quot;margin:0px;margin-left:4px;&quot;&gt;&lt;span style=&quot;background-color: transparent; color: light-dark(rgb(0, 0, 0), rgb(255, 255, 255));&quot;&gt;+ onBegin(): void&lt;/span&gt;&lt;/p&gt;&lt;p style=&quot;margin: 0px 0px 0px 4px;&quot;&gt;+&amp;nbsp;onSetData(&lt;span style=&quot;background-color: transparent; color: light-dark(rgb(0, 0, 0), rgb(255, 255, 255));&quot;&gt;WebDataFrame&lt;/span&gt;&lt;span style=&quot;background-color: transparent; color: light-dark(rgb(0, 0, 0), rgb(255, 255, 255));&quot;&gt;): void&lt;/span&gt;&lt;/p&gt;&lt;p style=&quot;margin: 0px 0px 0px 4px;&quot;&gt;+ onEnd(): void&lt;/p&gt;&lt;p style=&quot;margin: 0px 0px 0px 4px;&quot;&gt;+ getName(): String&lt;/p&gt;&lt;p style=&quot;margin: 0px 0px 0px 4px;&quot;&gt;#&amp;nbsp;getCustomNameAndExtension(): String&lt;/p&gt;&lt;p style=&quot;margin: 0px 0px 0px 4px;&quot;&gt;-&amp;nbsp;calculateMeanPrice(): void&lt;/p&gt;&lt;p style=&quot;margin: 0px 0px 0px 4px;&quot;&gt;-&amp;nbsp;calculatePriceVariance(float): float&lt;/p&gt;&lt;p style=&quot;margin: 0px 0px 0px 4px;&quot;&gt;-&amp;nbsp;calculateVolatility(float): float&lt;/p&gt;" style="verticalAlign=top;align=left;overflow=fill;html=1;whiteSpace=wrap;" parent="1" vertex="1">
          <mxGeometry x="710" y="1500" width="250" height="180" as="geometry" />
        </mxCell>
        <mxCell id="RVdmriCW-ipp8TiBLmiZ-2" value="" style="endArrow=block;endSize=16;endFill=0;html=1;rounded=0;entryX=0.53;entryY=1.005;entryDx=0;entryDy=0;entryPerimeter=0;exitX=0.5;exitY=0;exitDx=0;exitDy=0;" edge="1" parent="1" source="mrblAdJvPCHrt3IJG2A_-4" target="rGbhJyJhz0m8njLA5riN-18">
          <mxGeometry width="160" relative="1" as="geometry">
            <mxPoint x="660" y="1623" as="sourcePoint" />
            <mxPoint x="866" y="1320" as="targetPoint" />
          </mxGeometry>
        </mxCell>
        <mxCell id="RVdmriCW-ipp8TiBLmiZ-3" value="&lt;p style=&quot;margin:0px;margin-top:4px;text-align:center;&quot;&gt;&lt;i&gt;&amp;lt;&amp;lt;Interface&amp;gt;&amp;gt;&lt;/i&gt;&lt;br&gt;&lt;b&gt;RiskComputationStrategy&lt;/b&gt;&lt;/p&gt;&lt;hr size=&quot;1&quot; style=&quot;border-style:solid;&quot;&gt;&lt;p style=&quot;margin:0px;margin-left:4px;&quot;&gt;&lt;br&gt;&lt;/p&gt;&lt;hr size=&quot;1&quot; style=&quot;border-style:solid;&quot;&gt;&lt;p style=&quot;margin:0px;margin-left:4px;&quot;&gt;+ getName(): String&lt;/p&gt;&lt;p style=&quot;margin:0px;margin-left:4px;&quot;&gt;+ execute(List&amp;lt;WebDataFrame&amp;gt;): float&lt;/p&gt;" style="verticalAlign=top;align=left;overflow=fill;html=1;whiteSpace=wrap;" vertex="1" parent="1">
          <mxGeometry x="1700" y="1530" width="220" height="120" as="geometry" />
        </mxCell>
        <mxCell id="RVdmriCW-ipp8TiBLmiZ-4" value="&lt;p style=&quot;margin:0px;margin-top:4px;text-align:center;&quot;&gt;&lt;b&gt;HistoricalVaRStrategy&lt;/b&gt;&lt;/p&gt;&lt;hr size=&quot;1&quot; style=&quot;border-style:solid;&quot;&gt;&lt;p style=&quot;margin:0px;margin-left:4px;&quot;&gt;&lt;br&gt;&lt;/p&gt;&lt;hr size=&quot;1&quot; style=&quot;border-style:solid;&quot;&gt;&lt;p style=&quot;margin: 0px 0px 0px 4px;&quot;&gt;+&amp;nbsp;&lt;span style=&quot;background-color: transparent;&quot;&gt;getName(): String&lt;/span&gt;&lt;/p&gt;&lt;p style=&quot;margin: 0px 0px 0px 4px;&quot;&gt;+ execute(List&amp;lt;WebDataFrame&amp;gt;): float&lt;/p&gt;" style="verticalAlign=top;align=left;overflow=fill;html=1;whiteSpace=wrap;" vertex="1" parent="1">
          <mxGeometry x="1550" y="1720" width="220" height="120" as="geometry" />
        </mxCell>
        <mxCell id="RVdmriCW-ipp8TiBLmiZ-5" value="&lt;p style=&quot;margin:0px;margin-top:4px;text-align:center;&quot;&gt;&lt;b&gt;LinearRegressionAnomaliesStrategy&lt;/b&gt;&lt;/p&gt;&lt;hr size=&quot;1&quot; style=&quot;border-style:solid;&quot;&gt;&lt;p style=&quot;margin:0px;margin-left:4px;&quot;&gt;&lt;br&gt;&lt;/p&gt;&lt;hr size=&quot;1&quot; style=&quot;border-style:solid;&quot;&gt;&lt;p style=&quot;margin: 0px 0px 0px 4px;&quot;&gt;+&amp;nbsp;&lt;span style=&quot;background-color: transparent;&quot;&gt;getName(): String&lt;/span&gt;&lt;/p&gt;&lt;p style=&quot;margin: 0px 0px 0px 4px;&quot;&gt;+ execute(List&amp;lt;WebDataFrame&amp;gt;): float&lt;/p&gt;" style="verticalAlign=top;align=left;overflow=fill;html=1;whiteSpace=wrap;" vertex="1" parent="1">
          <mxGeometry x="1850" y="1720" width="240" height="120" as="geometry" />
        </mxCell>
        <mxCell id="RVdmriCW-ipp8TiBLmiZ-6" value="" style="endArrow=block;dashed=1;endFill=0;endSize=12;html=1;rounded=0;entryX=0.25;entryY=1;entryDx=0;entryDy=0;" edge="1" parent="1" target="RVdmriCW-ipp8TiBLmiZ-3">
          <mxGeometry width="160" relative="1" as="geometry">
            <mxPoint x="1662.5" y="1720" as="sourcePoint" />
            <mxPoint x="1580" y="1560" as="targetPoint" />
          </mxGeometry>
        </mxCell>
        <mxCell id="RVdmriCW-ipp8TiBLmiZ-7" value="" style="endArrow=block;dashed=1;endFill=0;endSize=12;html=1;rounded=0;entryX=0.75;entryY=1;entryDx=0;entryDy=0;" edge="1" parent="1" target="RVdmriCW-ipp8TiBLmiZ-3">
          <mxGeometry width="160" relative="1" as="geometry">
            <mxPoint x="1942.5" y="1720" as="sourcePoint" />
            <mxPoint x="2030" y="1560" as="targetPoint" />
          </mxGeometry>
        </mxCell>
        <mxCell id="RVdmriCW-ipp8TiBLmiZ-13" value="" style="endArrow=diamondThin;endFill=1;endSize=24;html=1;rounded=0;entryX=1;entryY=0.5;entryDx=0;entryDy=0;" edge="1" parent="1" source="RVdmriCW-ipp8TiBLmiZ-3" target="mrblAdJvPCHrt3IJG2A_-4">
          <mxGeometry width="160" relative="1" as="geometry">
            <mxPoint x="1720" y="1660" as="sourcePoint" />
            <mxPoint x="1720" y="1660" as="targetPoint" />
          </mxGeometry>
        </mxCell>
      </root>
    </mxGraphModel>
  </diagram>
</mxfile>
